<svg xmlns="http://www.w3.org/2000/svg" xmlns:xlink="http://www.w3.org/1999/xlink" width="72" height="72" version="1.1" viewBox="0 0 72 72"><title>magic selected</title><desc>Created with Sketch.</desc><defs><rect id="path-1" width="46" height="46" x="0" y="0"/></defs><g id="Page-1" fill="none" fill-rule="evenodd" stroke="none" stroke-width="1"><g id="magic-selected"><g id="Group-4" transform="translate(13.000000, 13.000000)"><g id="Group-3-Copy-2"><circle id="Oval" cx="28" cy="12" r="3" stroke="#EAF7FF" stroke-width="2"/><g id="Group-2"><mask id="mask-2" fill="#fff"><use xlink:href="#path-1"/></mask><use id="Mask" fill="#E8F6FE" xlink:href="#path-1"/><g mask="url(#mask-2)"><g transform="translate(32.964446, 33.855467) rotate(44.000000) translate(-32.964446, -33.855467) translate(12.464446, 29.355467)"><path id="Rectangle-3" fill="#439CE6" d="M0.877134091,5.57938395 C0.850233976,5.03063519 1.273131,4.53813959 1.82706358,4.47878967 L40.4264069,0.343145751 L41,8.08578644 L2.00877516,8.08578644 C1.45164402,8.08578644 0.978270177,7.64250902 0.951293034,7.09218893 L0.877134091,5.57938395 Z"/><path id="Rectangle-3-Copy" fill="#7FCCF7" d="M0.877134091,5.57938395 C0.850233976,5.03063519 1.26890156,4.54574331 1.82936394,4.49479218 L8.60660172,3.87867966 L8.82428683,8.08578644 L1.99095133,8.08578644 C1.44366402,8.08578644 0.978270177,7.64250902 0.951293034,7.09218893 L0.877134091,5.57938395 Z"/></g></g></g></g><polygon id="Shape-Copy-8" fill="#439CE6" points="22 15.5 24.681 14.681 25.5 12 26.318 14.681 29 15.5 26.318 16.319 25.5 19 24.681 16.319"/><polygon id="Shape-Copy-9" fill="#439CE6" points="25 7 26.532 6.532 27 5 27.468 6.532 29 7 27.468 7.468 27 9 26.532 7.468"/><polygon id="Shape-Copy-10" fill="#439CE6" points="30 11 32.298 10.298 33 8 33.702 10.298 36 11 33.702 11.702 33 14 32.298 11.702"/><polygon id="Shape-Copy-12" fill="#439CE6" points="33 4.5 34.149 4.149 34.5 3 34.851 4.149 36 4.5 34.851 4.851 34.5 6 34.149 4.851"/><polygon id="Shape-Copy-14" fill="#439CE6" points="40 3 40.766 2.766 41 2 41.234 2.766 42 3 41.234 3.234 41 4 40.766 3.234"/><polygon id="Shape-Copy-13" fill="#439CE6" points="38 7 38.766 6.766 39 6 39.234 6.766 40 7 39.234 7.234 39 8 38.766 7.234"/><polygon id="Shape-Copy-11" fill="#439CE6" points="16 10.5 18.681 9.681 19.5 7 20.318 9.681 23 10.5 20.318 11.319 19.5 14 18.681 11.319"/><polygon id="Shape-Copy-2" fill="#439CE6" points="7 17 10.83 15.83 12 12 13.169 15.83 17 17 13.169 18.17 12 22 10.83 18.17"/></g></g></g></svg>